<?xml version="1.0" encoding="utf-8"?>
<!-- Generator: Adobe Illustrator 19.2.0, SVG Export Plug-In . SVG Version: 6.00 Build 0)  -->
<svg xmlns="http://www.w3.org/2000/svg" xmlns:xlink="http://www.w3.org/1999/xlink" version="1.1" id="celsius" x="0px" y="0px" viewBox="0 0 204 220" enable-background="new 0 0 204 220" xml:space="preserve" width="512" height="512">
<g>
	<path fill="#FFFFFF" d="M16,12c-4.4102,0-8,3.5879-8,8s3.5898,8,8,8s8-3.5879,8-8S20.4102,12,16,12z"/>
	<path fill="#FFFFFF" d="M152,24c2.2109,0,4,1.791,4,4s-1.7891,4-4,4h-8v20h20V18.0039C164,12.4883,159.5156,8,154,8   s-10,4.4883-10,10.0039V24H152z"/>
	<path fill="#D0E8FF" d="M166.7891,130.5391c-1.6602-0.5273-2.7891-2.0684-2.7891-3.8125v-66.707h-20V80h8c2.2109,0,4,1.791,4,4   s-1.7891,4-4,4h-8v20h8c2.2109,0,4,1.791,4,4s-1.7891,4-4,4h-8v10.7266c0,1.7441-1.1289,3.2852-2.7891,3.8125   C123.7383,136.082,112,152.0547,112,170.2852C112,193.2871,130.8398,212,154,212s42-18.7129,42-41.7148   C196,152.0547,184.2617,136.082,166.7891,130.5391z"/>
	<path fill="#1C71DA" d="M172,123.8887V60v-3.9805V18.0039C172,8.0762,163.9258,0,154,0s-18,8.0762-18,18.0039v38.0156V60v63.8887   c-19.2578,7.3594-32,25.6504-32,46.3965C104,197.6973,126.4297,220,154,220s50-22.3027,50-49.7148   C204,149.5391,191.2578,131.248,172,123.8887z M154,8c5.5156,0,10,4.4883,10,10.0039V52h-20V32h8c2.2109,0,4-1.791,4-4   s-1.7891-4-4-4h-8v-5.9961C144,12.4883,148.4844,8,154,8z M154,212c-23.1602,0-42-18.7129-42-41.7148   c0-18.2305,11.7383-34.2031,29.2109-39.7461c1.6602-0.5273,2.7891-2.0684,2.7891-3.8125V116h8c2.2109,0,4-1.791,4-4s-1.7891-4-4-4   h-8V88h8c2.2109,0,4-1.791,4-4s-1.7891-4-4-4h-8V60.0195h20v66.707c0,1.7441,1.1289,3.2852,2.7891,3.8125   C184.2617,136.082,196,152.0547,196,170.2852C196,193.2871,177.1602,212,154,212z"/>
	<path fill="#1C71DA" d="M93.0078,93.8086c-7.0586,7.9648-17.2031,12.5332-27.8359,12.5332C44.6758,106.3418,28,89.668,28,69.1719   S44.6758,32,65.1719,32c10.5273,0,20.6016,4.4902,27.6445,12.3203c1.4766,1.6445,4,1.7754,5.6484,0.3008   c1.6406-1.4785,1.7773-4.0059,0.2969-5.6484C90.207,29.457,77.9648,24,65.1719,24C40.2656,24,20,44.2637,20,69.1719   c0,24.9062,20.2656,45.1699,45.1719,45.1699c12.9219,0,25.2461-5.5508,33.8203-15.2285c1.4648-1.6523,1.3125-4.1816-0.3398-5.6465   C97.0039,92.0059,94.4727,92.1543,93.0078,93.8086z"/>
	<path fill="#1C71DA" d="M32,20c0-8.8223-7.1758-16-16-16S0,11.1777,0,20s7.1758,16,16,16S32,28.8223,32,20z M16,28   c-4.4102,0-8-3.5879-8-8s3.5898-8,8-8s8,3.5879,8,8S20.4102,28,16,28z"/>
</g>
<path fill="#FF5D5D" d="M184.3854,66.8322c-1.0234,0-2.0469-0.3906-2.8281-1.1714c-1.5625-1.5625-1.5625-4.0952,0-5.6572  l14.1426-14.1421c1.5605-1.5615,4.0938-1.5615,5.6562,0c1.5625,1.5625,1.5625,4.0952,0,5.6572l-14.1426,14.1421  C186.4332,66.4415,185.4088,66.8322,184.3854,66.8322z"/>
<path fill="#FF5D5D" d="M198.528,66.8307c-1.0234,0-2.0479-0.3906-2.8281-1.1714l-14.1426-14.1426  c-1.5625-1.5625-1.5625-4.0947,0-5.6572c1.5605-1.5615,4.0957-1.5615,5.6562,0l14.1426,14.1426  c1.5625,1.5625,1.5625,4.0947,0,5.6572C200.5758,66.4401,199.5514,66.8307,198.528,66.8307z"/>
<path fill="#00D40B" d="M74.3854,210.8322c-7.7197,0-14-6.2803-14-14s6.2803-14,14-14s14,6.2803,14,14  S82.1051,210.8322,74.3854,210.8322z M74.3854,190.8322c-3.3086,0-6,2.6914-6,6s2.6914,6,6,6s6-2.6914,6-6  S77.694,190.8322,74.3854,190.8322z"/>
<path fill="#FFC504" d="M51.6989,173.4576c-1.0234,0-2.0479-0.3906-2.8281-1.1714l-11.3135-11.3135  c-1.5625-1.5625-1.5625-4.0947,0-5.6572l11.3135-11.3135c1.5605-1.5615,4.0957-1.5615,5.6562,0l11.3135,11.3135  c1.5625,1.5625,1.5625,4.0947,0,5.6572L54.527,172.2863C53.7467,173.067,52.7223,173.4576,51.6989,173.4576z M46.0426,158.1442  l5.6562,5.6567l5.6562-5.6567l-5.6562-5.6567L46.0426,158.1442z"/>
</svg>
