<svg xmlns="http://www.w3.org/2000/svg" viewBox="0 0 64 64"><defs><style>.cls-1{fill:#009ede;}</style></defs><g id="_35.wind" data-name="35.wind"><path class="cls-1" d="M32,12.7c-8.22.14-8.21,12.36,0,12.5C40.22,25.06,40.21,12.84,32,12.7Z"/><path class="cls-1" d="M51.16,19.63C43,19.77,43,32,51.16,32.13,59.38,32,59.38,19.77,51.16,19.63Z"/><path class="cls-1" d="M43.66,38.47c-8.21.14-8.21,12.36,0,12.5C51.88,50.82,51.88,38.6,43.66,38.47Z"/><path d="M7.09,25.88H32c9.14-.24,9.14-13.62,0-13.86-1.34,0-5.36.84-4.36,2.79A1,1,0,0,0,29,15a4.93,4.93,0,1,1,3,8.88H7.09A1,1,0,0,0,7.09,25.88Z"/><path d="M43.86,38.12H7.09a1,1,0,0,0,0,2H43.86a4.93,4.93,0,1,1-3,8.88,1,1,0,0,0-1.41.19c-1,2,3,2.79,4.36,2.79C53,51.74,53,38.36,43.86,38.12Z"/><path d="M51,19.14c-1.33,0-5.37.84-4.36,2.78a1,1,0,0,0,1.4.2c7.46-4.63,11.72,8.1,3,8.88H7.09a1,1,0,0,0,0,2H51a6.93,6.93,0,0,0,0-13.86Z"/></g></svg>